<svg width="50" height="70" viewBox="0 0 50 70" fill="none" xmlns="http://www.w3.org/2000/svg">
<g clip-path="url(#clip0_92_78)">
<path d="M38.465 29.702C38.465 29.702 14.2992 37.0858 22.2115 61.0727C22.2115 61.0727 21.9255 62.5328 31.1247 70C31.1247 70 12.3449 43.5936 38.465 29.702Z" fill="url(#paint0_linear_92_78)"/>
<path d="M50 12.8906C49.857 12.2649 46.6158 7.84297 39.1801 7.42581C33.3174 7.09208 29.2659 11.222 28.9323 13.9753C28.6463 16.1028 30.5529 19.6904 29.9332 22.1517C29.9332 22.1517 29.8856 22.4854 29.6473 22.9026C29.6473 22.9443 29.5996 22.986 29.5996 23.0277C29.5996 23.0694 29.5519 23.0694 29.5519 23.1112C29.5043 23.1529 29.4566 23.2363 29.4089 23.278C29.3613 23.3614 29.3136 23.4032 29.2659 23.4866C28.5986 24.1958 27.3594 24.9884 24.9761 24.9884C24.9761 24.9884 27.264 24.6547 28.3127 23.3197C27.55 22.4854 25.9294 20.9002 23.3556 19.9407C23.3079 19.9407 23.3079 19.9407 23.2602 19.899C23.0696 19.8573 22.8789 19.7738 22.7359 19.7321C22.5929 19.6904 22.4499 19.6487 22.2593 19.607C22.1163 19.5653 22.0209 19.5653 21.878 19.5235C21.735 19.4818 21.6396 19.4818 21.4966 19.4401C20.3527 19.2315 19.0658 19.1481 17.6835 19.315C16.0152 19.5653 14.204 20.2327 12.5834 21.7762C12.5834 21.7762 13.6797 19.5653 17.0638 18.8144C15.8722 17.8549 13.1077 15.8525 10.4385 15.9359C10.4385 15.9359 14.347 14.309 15.3956 10.7214C16.4442 7.1338 20.4004 5.38171 21.3536 5.63201C22.3069 5.88231 23.5939 7.34238 24.9285 7.1338C26.2631 6.92522 26.2154 5.84059 26.2154 5.84059C26.2154 5.84059 28.122 5.42343 28.8846 5.13141C29.5519 4.88112 29.4089 3.75477 28.408 2.50328C27.407 1.25179 26.7397 -0.416858 25.4051 0.0837375C24.0705 0.584333 21.9733 1.0015 20.2574 1.04321C18.5414 1.08493 17.7788 1.54381 16.1106 2.67015C14.4423 3.79649 9.86652 6.25775 6.81599 9.09446C3.7178 11.9312 2.14488 13.5164 0.714943 14.309C-0.714991 15.1016 0.428956 15.8525 0.810271 16.9371C1.19159 18.0218 0.714943 20.9419 2.43086 23.3614C3.62247 25.0301 5.24306 26.5736 6.14869 27.3245C6.14869 26.7405 6.33935 26.4067 6.33935 26.4067C6.33935 27.3662 7.24497 28.7429 7.53096 29.16C7.67395 29.3686 7.86461 29.5772 8.05527 29.8275C8.48425 28.0754 9.4852 27.4914 9.4852 27.4914C8.77023 28.3674 8.62724 29.4938 8.67491 30.6618C8.72257 31.079 8.86556 32.1219 9.19921 33.2899C9.34221 33.7905 9.53287 34.166 9.62819 34.4163C9.81885 34.8334 10.0095 35.2089 10.2478 35.6261C11.3918 33.874 12.9647 33.3734 12.9647 33.3734C11.5824 34.2077 10.8675 35.3758 10.4862 36.5855C10.3432 37.1278 10.2002 38.129 10.2478 39.3805C10.3432 40.7154 10.6768 41.8001 10.8198 42.1755C11.1535 43.135 11.7254 44.1362 12.5357 45.0539C15.4433 48.4747 19.7331 57.8191 20.305 59.1123C19.4471 57.1934 11.7254 37.6284 39.9904 28.284C39.9904 28.284 41.9447 30.2029 43.2316 29.16C44.3756 28.2423 43.8036 27.6165 44.9952 27.3245C45.4242 27.2411 45.1382 26.5736 45.1382 26.5736C45.1382 26.5736 45.8055 26.5319 45.7102 26.1147C45.6625 25.8227 45.6148 24.7381 46.1868 24.6964C46.8065 24.6964 47.4738 24.6129 47.5214 24.2792C47.6168 23.9455 46.9971 21.8597 46.7111 20.8585C46.6158 20.5247 46.7111 20.191 46.9495 19.9407L48.0457 18.8561C48.1887 18.7309 48.2841 18.5641 48.2841 18.3555L48.5224 15.2268C48.6177 15.2685 50.143 13.5164 50 12.8906Z" fill="url(#paint1_linear_92_78)"/>
<path opacity="0.4" d="M12.4404 22.6102C12.4404 22.6102 15.7769 19.3981 20.4957 20.149C25.2145 20.8999 26.7398 23.3611 26.7398 23.3611C26.7398 23.3611 19.7331 28.7425 12.4404 22.6102Z" fill="url(#paint2_linear_92_78)"/>
<path opacity="0.4" d="M11.9162 21.3588C11.9162 21.3588 12.7265 19.1478 15.5864 18.5638C15.5864 18.5638 12.6788 16.1859 9.15165 16.5197C9.15165 16.5197 5.24317 18.5638 11.9162 21.3588Z" fill="url(#paint3_linear_92_78)"/>
<path opacity="0.4" d="M31.2678 21.3588C31.2678 21.3588 30.7911 18.23 30.2668 15.7271C29.6948 13.2241 32.2211 9.59475 37.0828 8.67699C41.8969 7.75923 47.1877 10.6377 47.6643 12.3897C48.0933 14.1418 35.6529 27.3242 31.2678 21.3588Z" fill="url(#paint4_linear_92_78)"/>
</g>
<defs>
<linearGradient id="paint0_linear_92_78" x1="34.8478" y1="45.8212" x2="16.8097" y2="46.4533" gradientUnits="userSpaceOnUse">
<stop stop-color="#E10B18"/>
<stop offset="1" stop-color="#FDC00F"/>
</linearGradient>
<linearGradient id="paint1_linear_92_78" x1="39.8756" y1="23.6405" x2="-10.496" y2="27.0113" gradientUnits="userSpaceOnUse">
<stop stop-color="#E10B18"/>
<stop offset="1" stop-color="#FDC00F"/>
</linearGradient>
<linearGradient id="paint2_linear_92_78" x1="19.5193" y1="23.7984" x2="19.717" y2="20.1837" gradientUnits="userSpaceOnUse">
<stop stop-color="#FF4060" stop-opacity="0"/>
<stop offset="1" stop-color="white"/>
</linearGradient>
<linearGradient id="paint3_linear_92_78" x1="10.1804" y1="19.4161" x2="12.9742" y2="16.2471" gradientUnits="userSpaceOnUse">
<stop stop-color="#FF4060" stop-opacity="0"/>
<stop offset="1" stop-color="white"/>
</linearGradient>
<linearGradient id="paint4_linear_92_78" x1="40.2492" y1="18.4452" x2="36.7745" y2="9.46001" gradientUnits="userSpaceOnUse">
<stop stop-color="#FF4060" stop-opacity="0"/>
<stop offset="1" stop-color="white"/>
</linearGradient>
<clipPath id="clip0_92_78">
<rect width="50" height="70" fill="white"/>
</clipPath>
</defs>
</svg>
