<svg width="34" height="34" viewBox="0 0 34 34" fill="none" xmlns="http://www.w3.org/2000/svg">
<path d="M26.9584 1.58697V4.67719C26.9584 5.13808 26.5882 5.5083 26.1273 5.5083H24.9789H9.02155H7.8731C7.41221 5.5083 7.04199 5.13808 7.04199 4.67719V1.58697C7.04199 1.12608 7.41221 0.755859 7.8731 0.755859H26.1198C26.5807 0.755859 26.9584 1.12608 26.9584 1.58697Z" fill="#FDC00F"/>
<path d="M17.0001 15.9878C19.4255 15.9878 21.3899 17.9522 21.3899 20.3776C21.3899 22.8029 19.4255 24.7673 17.0001 24.7673C14.5748 24.7673 12.6104 22.8029 12.6104 20.3776C12.6104 17.9522 14.5748 15.9878 17.0001 15.9878ZM16.8037 23.3242L18.7908 19.8789H17.189V17.4536L15.2019 20.8989H16.8037V23.3242Z" fill="white"/>
<path d="M18.7908 19.8789L16.8037 23.3243V20.8989H15.2095L17.1966 17.4536V19.8789H18.7908Z" fill="#FFDF40"/>
<path d="M9.02148 5.5083H24.9713V7.50297H9.02148V5.5083Z" fill="#E2E7F1"/>
<path d="M29.414 13.9404V26.8075H4.58643V13.9404H29.414ZM21.39 20.3778C21.39 17.9524 19.4255 15.988 17.0002 15.988C14.5749 15.988 12.6104 17.9524 12.6104 20.3778C12.6104 22.8031 14.5749 24.7675 17.0002 24.7675C19.4255 24.7675 21.39 22.7955 21.39 20.3778Z" fill="#FDC00F"/>
<path d="M29.414 26.8076V29.1952C29.414 31.4316 27.6006 33.245 25.3642 33.245H8.6362C6.39976 33.245 4.58643 31.4316 4.58643 29.1952V26.8076H29.414Z" fill="#E10B18"/>
<path d="M29.414 11.5527V13.9403H4.58643V11.5527C4.58643 9.31626 6.39976 7.50293 8.6362 7.50293H9.02909H24.9789H25.3718C27.6006 7.51049 29.414 9.32382 29.414 11.5527Z" fill="#E10B18"/>
<path d="M25.3641 33.6223H8.63605C6.19561 33.6223 4.2085 31.6352 4.2085 29.1948V11.5526C4.2085 9.11211 6.19561 7.125 8.63605 7.125H25.3641C27.8045 7.125 29.7916 9.11211 29.7916 11.5526V29.1948C29.7916 31.6352 27.8045 33.6223 25.3641 33.6223ZM8.63605 7.88811C6.61116 7.88811 4.96405 9.53522 4.96405 11.5601V29.2023C4.96405 31.2272 6.61116 32.8743 8.63605 32.8743H25.3641C27.3889 32.8743 29.0361 31.2272 29.0361 29.2023V11.5526C29.0361 9.52767 27.3889 7.88056 25.3641 7.88056H8.63605V7.88811Z" fill="black"/>
<path d="M9.02133 7.88815C8.80978 7.88815 8.64355 7.72193 8.64355 7.51037V5.50815C8.64355 5.29659 8.80978 5.13037 9.02133 5.13037C9.23289 5.13037 9.39911 5.29659 9.39911 5.50815V7.50282C9.39911 7.71437 9.23289 7.88815 9.02133 7.88815Z" fill="black"/>
<path d="M24.971 7.88815C24.7595 7.88815 24.5933 7.72193 24.5933 7.51037V5.50815C24.5933 5.29659 24.7595 5.13037 24.971 5.13037C25.1826 5.13037 25.3488 5.29659 25.3488 5.50815V7.50282C25.3488 7.71437 25.1826 7.88815 24.971 7.88815Z" fill="black"/>
<path d="M26.1194 5.88593H7.88028C7.21539 5.88593 6.67139 5.34193 6.67139 4.67704V1.58682C6.67139 0.92193 7.21539 0.37793 7.88028 0.37793H26.1269C26.7918 0.37793 27.3358 0.92193 27.3358 1.58682V4.67704C27.3358 5.34193 26.7918 5.88593 26.1194 5.88593ZM7.88028 1.13349C7.63094 1.13349 7.42694 1.33749 7.42694 1.58682V4.67704C7.42694 4.92637 7.63094 5.13037 7.88028 5.13037H26.1269C26.3763 5.13037 26.5803 4.92637 26.5803 4.67704V1.58682C26.5803 1.33749 26.3763 1.13349 26.1269 1.13349H7.88028Z" fill="black"/>
<path d="M29.4138 14.3181H4.58627C4.37472 14.3181 4.2085 14.1518 4.2085 13.9403C4.2085 13.7287 4.37472 13.5625 4.58627 13.5625H29.4138C29.6254 13.5625 29.7916 13.7287 29.7916 13.9403C29.7916 14.1518 29.6254 14.3181 29.4138 14.3181Z" fill="black"/>
<path d="M29.4138 27.1852H4.58627C4.37472 27.1852 4.2085 27.019 4.2085 26.8075C4.2085 26.5959 4.37472 26.4297 4.58627 26.4297H29.4138C29.6254 26.4297 29.7916 26.5959 29.7916 26.8075C29.7916 27.019 29.6254 27.1852 29.4138 27.1852Z" fill="black"/>
<path d="M16.8038 23.7021C16.7736 23.7021 16.7358 23.6946 16.7056 23.687C16.5394 23.6417 16.4261 23.4906 16.4261 23.3243V21.2768H15.2021C15.0661 21.2768 14.9452 21.2012 14.8772 21.0879C14.8092 20.9746 14.8092 20.8234 14.8772 20.7101L16.8643 17.2648C16.9474 17.1137 17.1212 17.0457 17.2874 17.091C17.4536 17.1363 17.567 17.2874 17.567 17.4537V19.5012H18.791C18.927 19.5012 19.0478 19.5768 19.1158 19.6901C19.1838 19.8034 19.1838 19.9546 19.1158 20.0679L17.1287 23.5132C17.0683 23.6341 16.9398 23.7021 16.8038 23.7021ZM15.8594 20.5212H16.8038C17.0154 20.5212 17.1816 20.6874 17.1816 20.899V21.919L18.1336 20.2643H17.1892C16.9776 20.2643 16.8114 20.0981 16.8114 19.8866V18.8666L15.8594 20.5212Z" fill="black"/>
<path d="M17 25.1377C14.3706 25.1377 12.2324 22.9994 12.2324 20.3701C12.2324 17.7408 14.3706 15.6025 17 15.6025C19.6293 15.6025 21.7675 17.7408 21.7675 20.3701C21.7675 23.007 19.6293 25.1377 17 25.1377ZM17 16.3657C14.7862 16.3657 12.988 18.1639 12.988 20.3777C12.988 22.5914 14.7862 24.3896 17 24.3896C19.2138 24.3896 21.012 22.5914 21.012 20.3777C21.012 18.1639 19.2138 16.3657 17 16.3657Z" fill="black"/>
</svg>
